<mxfile host="app.diagrams.net" agent="Mozilla/5.0 (Windows NT 10.0; Win64; x64) AppleWebKit/537.36 (KHTML, like Gecko) Chrome/133.0.0.0 Safari/537.36 Edg/133.0.0.0" version="26.0.14" pages="2">
  <diagram name="Page-1" id="bAMW8cWuzrnTQeplOZ3-">
    <mxGraphModel dx="1400" dy="640" grid="1" gridSize="10" guides="1" tooltips="1" connect="1" arrows="1" fold="1" page="1" pageScale="1" pageWidth="850" pageHeight="1100" math="0" shadow="0">
      <root>
        <mxCell id="0" />
        <mxCell id="1" parent="0" />
        <mxCell id="ahP0zmeK6859WhdgRJ0I-22" value="&lt;span style=&quot;color: rgb(32, 33, 36); font-family: Roboto, Arial, sans-serif; font-size: 14px; letter-spacing: 0.2px; text-align: start; white-space-collapse: preserve-breaks; background-color: rgb(248, 249, 250);&quot;&gt;Skills Pages/Printables&lt;/span&gt;" style="whiteSpace=wrap;html=1;align=center;verticalAlign=middle;treeFolding=1;treeMoving=1;newEdgeStyle={&quot;edgeStyle&quot;:&quot;elbowEdgeStyle&quot;,&quot;startArrow&quot;:&quot;none&quot;,&quot;endArrow&quot;:&quot;none&quot;};" vertex="1" parent="1">
          <mxGeometry x="470" y="140" width="140" height="70" as="geometry" />
        </mxCell>
        <mxCell id="ahP0zmeK6859WhdgRJ0I-24" value="&lt;span style=&quot;color: rgb(32, 33, 36); font-family: Roboto, Arial, sans-serif; font-size: 14px; letter-spacing: 0.2px; text-align: start; white-space-collapse: preserve-breaks; background-color: rgb(248, 249, 250);&quot;&gt;Magazines&lt;/span&gt;" style="whiteSpace=wrap;html=1;align=center;verticalAlign=middle;treeFolding=1;treeMoving=1;newEdgeStyle={&quot;edgeStyle&quot;:&quot;elbowEdgeStyle&quot;,&quot;startArrow&quot;:&quot;none&quot;,&quot;endArrow&quot;:&quot;none&quot;};" vertex="1" parent="1">
          <mxGeometry x="500" y="230" width="100" height="60" as="geometry" />
        </mxCell>
        <mxCell id="ahP0zmeK6859WhdgRJ0I-28" value="&lt;span style=&quot;color: rgb(32, 33, 36); font-family: Roboto, Arial, sans-serif; font-size: 14px; letter-spacing: 0.2px; text-align: start; white-space-collapse: preserve-breaks; background-color: rgb(248, 249, 250);&quot;&gt;Game Design&lt;/span&gt;" style="whiteSpace=wrap;html=1;align=center;verticalAlign=middle;treeFolding=1;treeMoving=1;" vertex="1" parent="1">
          <mxGeometry x="500" y="320" width="100" height="60" as="geometry" />
        </mxCell>
        <mxCell id="ahP0zmeK6859WhdgRJ0I-29" value="&lt;span style=&quot;color: rgb(32, 33, 36); font-family: Roboto, Arial, sans-serif; font-size: 14px; letter-spacing: 0.2px; text-align: start; white-space-collapse: preserve-breaks; background-color: rgb(248, 249, 250);&quot;&gt;Children&#39;s Books&lt;/span&gt;" style="whiteSpace=wrap;html=1;align=center;verticalAlign=middle;treeFolding=1;treeMoving=1;" vertex="1" parent="1">
          <mxGeometry x="500" y="410" width="100" height="60" as="geometry" />
        </mxCell>
        <UserObject label="WELCOME PAGE&amp;nbsp;" treeRoot="1" id="ahP0zmeK6859WhdgRJ0I-30">
          <mxCell style="whiteSpace=wrap;html=1;align=center;treeFolding=1;treeMoving=1;newEdgeStyle={&quot;edgeStyle&quot;:&quot;elbowEdgeStyle&quot;,&quot;startArrow&quot;:&quot;none&quot;,&quot;endArrow&quot;:&quot;none&quot;};" vertex="1" parent="1">
            <mxGeometry x="60" y="240" width="110" height="60" as="geometry" />
          </mxCell>
        </UserObject>
        <mxCell id="ahP0zmeK6859WhdgRJ0I-33" value="&lt;span style=&quot;color: rgb(32, 33, 36); font-family: Roboto, Arial, sans-serif; font-size: 14px; letter-spacing: 0.2px; text-align: start; white-space-collapse: preserve-breaks; background-color: rgb(248, 249, 250);&quot;&gt;Illustrations&lt;/span&gt;" style="whiteSpace=wrap;html=1;align=center;verticalAlign=middle;treeFolding=1;treeMoving=1;newEdgeStyle={&quot;edgeStyle&quot;:&quot;elbowEdgeStyle&quot;,&quot;startArrow&quot;:&quot;none&quot;,&quot;endArrow&quot;:&quot;none&quot;};" vertex="1" parent="1">
          <mxGeometry x="500" y="500" width="100" height="60" as="geometry" />
        </mxCell>
        <mxCell id="ahP0zmeK6859WhdgRJ0I-38" value="&lt;span style=&quot;font-family: Arial; text-align: start; text-wrap-mode: nowrap; background-color: rgb(255, 255, 255);&quot;&gt;&amp;nbsp;Portfolio/&amp;nbsp;&lt;/span&gt;&lt;div&gt;&lt;span style=&quot;font-family: Arial; text-align: start; text-wrap-mode: nowrap; background-color: rgb(255, 255, 255);&quot;&gt;Menu Bar&lt;/span&gt;&lt;/div&gt;" style="whiteSpace=wrap;html=1;align=center;verticalAlign=middle;treeFolding=1;treeMoving=1;newEdgeStyle={&quot;edgeStyle&quot;:&quot;elbowEdgeStyle&quot;,&quot;startArrow&quot;:&quot;none&quot;,&quot;endArrow&quot;:&quot;none&quot;};" vertex="1" parent="1">
          <mxGeometry x="230" y="240" width="90" height="60" as="geometry" />
        </mxCell>
        <mxCell id="ahP0zmeK6859WhdgRJ0I-39" value="BUTTON" style="edgeStyle=elbowEdgeStyle;elbow=horizontal;sourcePerimeterSpacing=0;targetPerimeterSpacing=0;startArrow=none;endArrow=none;rounded=0;curved=0;" edge="1" target="ahP0zmeK6859WhdgRJ0I-38" parent="1">
          <mxGeometry relative="1" as="geometry">
            <mxPoint x="170" y="270" as="sourcePoint" />
            <mxPoint x="290" y="270" as="targetPoint" />
            <Array as="points">
              <mxPoint x="245" y="270" />
              <mxPoint x="85" y="360" />
            </Array>
          </mxGeometry>
        </mxCell>
        <mxCell id="ahP0zmeK6859WhdgRJ0I-57" value="Contact Form" style="whiteSpace=wrap;html=1;align=center;verticalAlign=middle;treeFolding=1;treeMoving=1;newEdgeStyle={&quot;edgeStyle&quot;:&quot;elbowEdgeStyle&quot;,&quot;startArrow&quot;:&quot;none&quot;,&quot;endArrow&quot;:&quot;none&quot;};movable=1;resizable=1;rotatable=1;deletable=1;editable=1;locked=0;connectable=1;" vertex="1" parent="1">
          <mxGeometry x="720" y="70" width="100" height="60" as="geometry" />
        </mxCell>
        <mxCell id="ahP0zmeK6859WhdgRJ0I-60" value="" style="edgeStyle=elbowEdgeStyle;elbow=vertical;sourcePerimeterSpacing=0;targetPerimeterSpacing=0;startArrow=none;endArrow=none;rounded=0;curved=0;exitX=1;exitY=0.25;exitDx=0;exitDy=0;" edge="1" parent="1" target="ahP0zmeK6859WhdgRJ0I-36">
          <mxGeometry relative="1" as="geometry">
            <mxPoint x="140" y="240" as="sourcePoint" />
            <mxPoint x="220" y="195" as="targetPoint" />
            <Array as="points" />
          </mxGeometry>
        </mxCell>
        <mxCell id="ahP0zmeK6859WhdgRJ0I-90" value="BUTTON" style="edgeLabel;html=1;align=center;verticalAlign=middle;resizable=0;points=[];" vertex="1" connectable="0" parent="ahP0zmeK6859WhdgRJ0I-60">
          <mxGeometry x="-0.2874" y="1" relative="1" as="geometry">
            <mxPoint as="offset" />
          </mxGeometry>
        </mxCell>
        <mxCell id="ahP0zmeK6859WhdgRJ0I-36" value="&lt;b&gt;&lt;u&gt;Media links&lt;/u&gt;&lt;/b&gt;&lt;div&gt;User will have access to media links&lt;/div&gt;" style="whiteSpace=wrap;html=1;align=center;verticalAlign=middle;treeFolding=1;treeMoving=1;newEdgeStyle={&quot;edgeStyle&quot;:&quot;elbowEdgeStyle&quot;,&quot;startArrow&quot;:&quot;none&quot;,&quot;endArrow&quot;:&quot;none&quot;};" vertex="1" parent="1">
          <mxGeometry x="140" y="110" width="100" height="60" as="geometry" />
        </mxCell>
        <mxCell id="ahP0zmeK6859WhdgRJ0I-62" value="" style="edgeStyle=elbowEdgeStyle;rounded=0;orthogonalLoop=1;jettySize=auto;html=1;elbow=horizontal;startArrow=none;endArrow=none;entryX=0;entryY=0;entryDx=0;entryDy=0;exitX=0;exitY=0.5;exitDx=0;exitDy=0;" edge="1" parent="1" source="ahP0zmeK6859WhdgRJ0I-57" target="ahP0zmeK6859WhdgRJ0I-38">
          <mxGeometry relative="1" as="geometry">
            <mxPoint x="520" y="50" as="sourcePoint" />
            <mxPoint x="290" y="210" as="targetPoint" />
            <Array as="points">
              <mxPoint x="290" y="160" />
            </Array>
          </mxGeometry>
        </mxCell>
        <mxCell id="ahP0zmeK6859WhdgRJ0I-92" value="BUTTON" style="edgeLabel;html=1;align=center;verticalAlign=middle;resizable=0;points=[];" vertex="1" connectable="0" parent="ahP0zmeK6859WhdgRJ0I-62">
          <mxGeometry x="-0.2342" y="-2" relative="1" as="geometry">
            <mxPoint x="-99" y="2" as="offset" />
          </mxGeometry>
        </mxCell>
        <mxCell id="ahP0zmeK6859WhdgRJ0I-68" value="" style="endArrow=none;html=1;rounded=0;exitX=1.002;exitY=0.652;exitDx=0;exitDy=0;exitPerimeter=0;entryX=0;entryY=1;entryDx=0;entryDy=0;" edge="1" parent="1" source="ahP0zmeK6859WhdgRJ0I-22" target="ahP0zmeK6859WhdgRJ0I-57">
          <mxGeometry relative="1" as="geometry">
            <mxPoint x="640" y="200" as="sourcePoint" />
            <mxPoint x="720" y="175" as="targetPoint" />
            <Array as="points">
              <mxPoint x="720" y="186" />
            </Array>
          </mxGeometry>
        </mxCell>
        <mxCell id="ahP0zmeK6859WhdgRJ0I-93" value="BUTTON" style="edgeLabel;html=1;align=center;verticalAlign=middle;resizable=0;points=[];" vertex="1" connectable="0" parent="ahP0zmeK6859WhdgRJ0I-68">
          <mxGeometry x="-0.1616" y="2" relative="1" as="geometry">
            <mxPoint as="offset" />
          </mxGeometry>
        </mxCell>
        <mxCell id="ahP0zmeK6859WhdgRJ0I-69" value="" style="endArrow=none;html=1;rounded=0;exitX=1;exitY=0.5;exitDx=0;exitDy=0;" edge="1" parent="1" source="ahP0zmeK6859WhdgRJ0I-33">
          <mxGeometry relative="1" as="geometry">
            <mxPoint x="600" y="540" as="sourcePoint" />
            <mxPoint x="800" y="130" as="targetPoint" />
            <Array as="points">
              <mxPoint x="800" y="530" />
            </Array>
          </mxGeometry>
        </mxCell>
        <mxCell id="ahP0zmeK6859WhdgRJ0I-102" value="BUTTON" style="edgeLabel;html=1;align=center;verticalAlign=middle;resizable=0;points=[];" vertex="1" connectable="0" parent="ahP0zmeK6859WhdgRJ0I-69">
          <mxGeometry x="-0.7275" y="2" relative="1" as="geometry">
            <mxPoint as="offset" />
          </mxGeometry>
        </mxCell>
        <mxCell id="ahP0zmeK6859WhdgRJ0I-70" value="" style="endArrow=none;html=1;rounded=0;exitX=1;exitY=0.5;exitDx=0;exitDy=0;entryX=0.59;entryY=0.95;entryDx=0;entryDy=0;entryPerimeter=0;" edge="1" parent="1" source="ahP0zmeK6859WhdgRJ0I-29" target="ahP0zmeK6859WhdgRJ0I-57">
          <mxGeometry relative="1" as="geometry">
            <mxPoint x="610" y="439.5" as="sourcePoint" />
            <mxPoint x="770" y="439.5" as="targetPoint" />
            <Array as="points">
              <mxPoint x="780" y="440" />
            </Array>
          </mxGeometry>
        </mxCell>
        <mxCell id="ahP0zmeK6859WhdgRJ0I-101" value="BUTTON" style="edgeLabel;html=1;align=center;verticalAlign=middle;resizable=0;points=[];" vertex="1" connectable="0" parent="ahP0zmeK6859WhdgRJ0I-70">
          <mxGeometry x="-0.7211" relative="1" as="geometry">
            <mxPoint as="offset" />
          </mxGeometry>
        </mxCell>
        <mxCell id="ahP0zmeK6859WhdgRJ0I-71" value="" style="endArrow=none;html=1;rounded=0;exitX=1;exitY=0.25;exitDx=0;exitDy=0;entryX=0.25;entryY=1;entryDx=0;entryDy=0;" edge="1" parent="1" source="ahP0zmeK6859WhdgRJ0I-24" target="ahP0zmeK6859WhdgRJ0I-57">
          <mxGeometry relative="1" as="geometry">
            <mxPoint x="600" y="250" as="sourcePoint" />
            <mxPoint x="740" y="250" as="targetPoint" />
            <Array as="points">
              <mxPoint x="745" y="245" />
            </Array>
          </mxGeometry>
        </mxCell>
        <mxCell id="ahP0zmeK6859WhdgRJ0I-95" value="BUTTON" style="edgeLabel;html=1;align=center;verticalAlign=middle;resizable=0;points=[];" vertex="1" connectable="0" parent="ahP0zmeK6859WhdgRJ0I-71">
          <mxGeometry x="-0.4249" y="2" relative="1" as="geometry">
            <mxPoint as="offset" />
          </mxGeometry>
        </mxCell>
        <mxCell id="ahP0zmeK6859WhdgRJ0I-72" value="" style="endArrow=none;html=1;rounded=0;exitX=1;exitY=0.5;exitDx=0;exitDy=0;entryX=0.39;entryY=0.972;entryDx=0;entryDy=0;entryPerimeter=0;" edge="1" parent="1" source="ahP0zmeK6859WhdgRJ0I-28" target="ahP0zmeK6859WhdgRJ0I-57">
          <mxGeometry relative="1" as="geometry">
            <mxPoint x="600" y="349.5" as="sourcePoint" />
            <mxPoint x="760" y="349.5" as="targetPoint" />
            <Array as="points">
              <mxPoint x="760" y="350" />
            </Array>
          </mxGeometry>
        </mxCell>
        <mxCell id="ahP0zmeK6859WhdgRJ0I-100" value="BUTTON" style="edgeLabel;html=1;align=center;verticalAlign=middle;resizable=0;points=[];" vertex="1" connectable="0" parent="ahP0zmeK6859WhdgRJ0I-72">
          <mxGeometry x="-0.645" relative="1" as="geometry">
            <mxPoint as="offset" />
          </mxGeometry>
        </mxCell>
        <mxCell id="ahP0zmeK6859WhdgRJ0I-73" value="" style="endArrow=none;html=1;rounded=0;exitX=0.889;exitY=0;exitDx=0;exitDy=0;exitPerimeter=0;" edge="1" parent="1" source="ahP0zmeK6859WhdgRJ0I-38">
          <mxGeometry relative="1" as="geometry">
            <mxPoint x="310" y="250" as="sourcePoint" />
            <mxPoint x="470" y="158" as="targetPoint" />
            <Array as="points">
              <mxPoint x="310" y="160" />
            </Array>
          </mxGeometry>
        </mxCell>
        <mxCell id="ahP0zmeK6859WhdgRJ0I-91" value="BUTTON" style="edgeLabel;html=1;align=center;verticalAlign=middle;resizable=0;points=[];" vertex="1" connectable="0" parent="ahP0zmeK6859WhdgRJ0I-73">
          <mxGeometry x="0.223" relative="1" as="geometry">
            <mxPoint as="offset" />
          </mxGeometry>
        </mxCell>
        <mxCell id="ahP0zmeK6859WhdgRJ0I-74" value="" style="endArrow=none;html=1;rounded=0;exitX=0.974;exitY=0.139;exitDx=0;exitDy=0;exitPerimeter=0;" edge="1" parent="1" source="ahP0zmeK6859WhdgRJ0I-38">
          <mxGeometry relative="1" as="geometry">
            <mxPoint x="340" y="250" as="sourcePoint" />
            <mxPoint x="500" y="248" as="targetPoint" />
          </mxGeometry>
        </mxCell>
        <mxCell id="ahP0zmeK6859WhdgRJ0I-94" value="BUTTON" style="edgeLabel;html=1;align=center;verticalAlign=middle;resizable=0;points=[];" vertex="1" connectable="0" parent="ahP0zmeK6859WhdgRJ0I-74">
          <mxGeometry x="-0.1762" y="2" relative="1" as="geometry">
            <mxPoint x="-13" y="4" as="offset" />
          </mxGeometry>
        </mxCell>
        <mxCell id="ahP0zmeK6859WhdgRJ0I-76" value="" style="endArrow=none;html=1;rounded=0;entryX=0;entryY=0.5;entryDx=0;entryDy=0;exitX=0.75;exitY=1;exitDx=0;exitDy=0;" edge="1" parent="1" source="ahP0zmeK6859WhdgRJ0I-38" target="ahP0zmeK6859WhdgRJ0I-33">
          <mxGeometry relative="1" as="geometry">
            <mxPoint x="300" y="440" as="sourcePoint" />
            <mxPoint x="500" y="529.5" as="targetPoint" />
            <Array as="points">
              <mxPoint x="298" y="340" />
              <mxPoint x="400" y="340" />
              <mxPoint x="400" y="490" />
              <mxPoint x="400" y="530" />
            </Array>
          </mxGeometry>
        </mxCell>
        <mxCell id="ahP0zmeK6859WhdgRJ0I-99" value="BUTTON" style="edgeLabel;html=1;align=center;verticalAlign=middle;resizable=0;points=[];" vertex="1" connectable="0" parent="ahP0zmeK6859WhdgRJ0I-76">
          <mxGeometry x="-0.5567" y="-1" relative="1" as="geometry">
            <mxPoint x="16" as="offset" />
          </mxGeometry>
        </mxCell>
        <mxCell id="ahP0zmeK6859WhdgRJ0I-78" value="" style="endArrow=none;html=1;rounded=0;entryX=0;entryY=0.5;entryDx=0;entryDy=0;exitX=1;exitY=0.5;exitDx=0;exitDy=0;" edge="1" parent="1" source="ahP0zmeK6859WhdgRJ0I-38" target="ahP0zmeK6859WhdgRJ0I-28">
          <mxGeometry relative="1" as="geometry">
            <mxPoint x="340" y="349.5" as="sourcePoint" />
            <mxPoint x="470" y="360" as="targetPoint" />
            <Array as="points">
              <mxPoint x="460" y="270" />
              <mxPoint x="460" y="350" />
            </Array>
          </mxGeometry>
        </mxCell>
        <mxCell id="ahP0zmeK6859WhdgRJ0I-96" value="BUTTON" style="edgeLabel;html=1;align=center;verticalAlign=middle;resizable=0;points=[];" vertex="1" connectable="0" parent="ahP0zmeK6859WhdgRJ0I-78">
          <mxGeometry x="-0.5096" y="-1" relative="1" as="geometry">
            <mxPoint y="-1" as="offset" />
          </mxGeometry>
        </mxCell>
        <mxCell id="ahP0zmeK6859WhdgRJ0I-79" value="" style="endArrow=none;html=1;rounded=0;exitX=0.999;exitY=0.892;exitDx=0;exitDy=0;exitPerimeter=0;entryX=0;entryY=0.5;entryDx=0;entryDy=0;" edge="1" parent="1" source="ahP0zmeK6859WhdgRJ0I-38" target="ahP0zmeK6859WhdgRJ0I-29">
          <mxGeometry relative="1" as="geometry">
            <mxPoint x="400" y="390" as="sourcePoint" />
            <mxPoint x="440" y="430" as="targetPoint" />
            <Array as="points">
              <mxPoint x="440" y="294" />
              <mxPoint x="440" y="440" />
            </Array>
          </mxGeometry>
        </mxCell>
        <mxCell id="ahP0zmeK6859WhdgRJ0I-98" value="BUTTON" style="edgeLabel;html=1;align=center;verticalAlign=middle;resizable=0;points=[];" vertex="1" connectable="0" parent="ahP0zmeK6859WhdgRJ0I-79">
          <mxGeometry x="-0.6206" y="-2" relative="1" as="geometry">
            <mxPoint as="offset" />
          </mxGeometry>
        </mxCell>
        <mxCell id="ahP0zmeK6859WhdgRJ0I-103" value="&lt;font style=&quot;font-size: 18px;&quot;&gt;FRONT-END&amp;nbsp;&lt;/font&gt;" style="text;html=1;align=center;verticalAlign=middle;resizable=0;points=[];autosize=1;strokeColor=none;fillColor=none;" vertex="1" parent="1">
          <mxGeometry x="305" y="13" width="130" height="40" as="geometry" />
        </mxCell>
      </root>
    </mxGraphModel>
  </diagram>
  <diagram id="ZVD5_F2uf4FHiQdYdXaw" name="Page-2">
    <mxGraphModel dx="1400" dy="640" grid="1" gridSize="10" guides="1" tooltips="1" connect="1" arrows="1" fold="1" page="1" pageScale="1" pageWidth="850" pageHeight="1100" math="0" shadow="0">
      <root>
        <mxCell id="0" />
        <mxCell id="1" parent="0" />
      </root>
    </mxGraphModel>
  </diagram>
</mxfile>
